<svg width="17" height="15" viewBox="0 0 17 15" fill="none" xmlns="http://www.w3.org/2000/svg">
<path d="M15.3564 2.10485L15.2935 2.17007C15.2854 2.16227 15.2773 2.1545 15.2691 2.14676C14.4974 1.41544 13.4548 1.00147 12.364 1C12.3639 1 12.3638 1 12.3636 1L16.5 4.9675C16.5 4.96734 16.5 4.96719 16.5 4.96704C16.4984 3.92149 16.0669 2.91526 15.2935 2.17007L15.3564 2.10485ZM15.3564 2.10485C15.3483 2.09698 15.3403 2.08915 15.3322 2.08134C14.5419 1.31981 13.4741 0.894612 12.3641 0.8935H12.3636L16.5727 4.9675V4.96696C16.5716 3.89198 16.1322 2.86473 15.3564 2.10485Z" fill="black" stroke="black"/>
</svg>
