<svg width="17px" height="14px" viewBox="0 0 17 14" fill="none" xmlns="http://www.w3.org/2000/svg">
<path d="M15.3564 1.60485L15.2935 1.67007C15.2854 1.66227 15.2773 1.6545 15.2691 1.64676C14.4974 0.915436 13.4548 0.501466 12.364 0.500001C12.3639 0.500001 12.3638 0.5 12.3636 0.5L16.5 4.4675C16.5 4.46734 16.5 4.46719 16.5 4.46704C16.4984 3.42149 16.0669 2.41526 15.2935 1.67007L15.3564 1.60485ZM15.3564 1.60485C15.3483 1.59698 15.3403 1.58915 15.3322 1.58134C14.5419 0.819812 13.4741 0.394612 12.3641 0.3935H12.3636L16.5727 4.4675V4.46696C16.5716 3.39198 16.1322 2.36473 15.3564 1.60485Z" fill="black" stroke="black"/>
</svg>
