<svg width="18" height="14" viewBox="0 0 18 14" fill="none" xmlns="http://www.w3.org/2000/svg">
<path d="M9.18591 13.4847L9.1859 13.4847L9.18301 13.4862C9.16622 13.4949 9.14621 13.5 9.125 13.5C9.10379 13.5 9.08378 13.4949 9.06699 13.4862L9.06409 13.4847C8.91284 13.4078 6.89729 12.352 4.92735 10.6941C2.92741 9.01093 1.12515 6.83239 1.125 4.52218C1.12633 3.46238 1.56482 2.44214 2.35118 1.68644C3.13822 0.930083 4.20937 0.501284 5.33063 0.5C6.75933 0.500074 7.97966 1.08857 8.731 2.05022L9.125 2.55452L9.519 2.05022C10.2703 1.08857 11.4907 0.500074 12.9194 0.5C14.0406 0.501283 15.1118 0.930082 15.8988 1.68644C16.6853 2.44221 17.1238 3.46258 17.125 4.52249C17.1247 6.83258 15.3225 9.011 13.3227 10.6941C11.3527 12.352 9.33716 13.4078 9.18591 13.4847Z" fill="#C50000" stroke="black"/>
</svg>
